<mxfile host="app.diagrams.net" modified="2023-09-20T05:41:29.636Z" agent="Mozilla/5.0 (Macintosh; Intel Mac OS X 10_15_7) AppleWebKit/537.36 (KHTML, like Gecko) Chrome/116.0.0.0 Safari/537.36" etag="vysoN2BZE7Laj402f2Ut" version="21.7.5" type="google">
  <diagram name="P치gina-1" id="X29LXEfkhfVHR-ibwSyE">
    <mxGraphModel grid="1" page="1" gridSize="10" guides="1" tooltips="1" connect="1" arrows="1" fold="1" pageScale="1" pageWidth="827" pageHeight="1169" math="0" shadow="0">
      <root>
        <mxCell id="0" />
        <mxCell id="1" parent="0" />
        <mxCell id="s3E7Dk6g6ZmlKeuQgmPd-25" style="edgeStyle=orthogonalEdgeStyle;rounded=0;orthogonalLoop=1;jettySize=auto;html=1;exitX=0.5;exitY=0;exitDx=0;exitDy=0;endArrow=none;endFill=0;" edge="1" parent="1" source="s3E7Dk6g6ZmlKeuQgmPd-1" target="s3E7Dk6g6ZmlKeuQgmPd-9">
          <mxGeometry relative="1" as="geometry" />
        </mxCell>
        <mxCell id="s3E7Dk6g6ZmlKeuQgmPd-39" style="edgeStyle=orthogonalEdgeStyle;rounded=0;orthogonalLoop=1;jettySize=auto;html=1;exitX=1;exitY=0.5;exitDx=0;exitDy=0;entryX=0;entryY=0.5;entryDx=0;entryDy=0;endArrow=none;endFill=0;" edge="1" parent="1" source="s3E7Dk6g6ZmlKeuQgmPd-1" target="s3E7Dk6g6ZmlKeuQgmPd-6">
          <mxGeometry relative="1" as="geometry" />
        </mxCell>
        <mxCell id="s3E7Dk6g6ZmlKeuQgmPd-1" value="Relaci칩n" style="rounded=0;whiteSpace=wrap;html=1;strokeWidth=3;" vertex="1" parent="1">
          <mxGeometry x="290" y="280" width="110" height="40" as="geometry" />
        </mxCell>
        <mxCell id="s3E7Dk6g6ZmlKeuQgmPd-26" style="edgeStyle=orthogonalEdgeStyle;rounded=0;orthogonalLoop=1;jettySize=auto;html=1;exitX=1;exitY=0.5;exitDx=0;exitDy=0;entryX=0.5;entryY=1;entryDx=0;entryDy=0;endArrow=none;endFill=0;" edge="1" parent="1" source="s3E7Dk6g6ZmlKeuQgmPd-3" target="s3E7Dk6g6ZmlKeuQgmPd-9">
          <mxGeometry relative="1" as="geometry" />
        </mxCell>
        <mxCell id="s3E7Dk6g6ZmlKeuQgmPd-3" value="Entidad" style="rounded=0;whiteSpace=wrap;html=1;strokeWidth=3;" vertex="1" parent="1">
          <mxGeometry x="490" y="385" width="110" height="40" as="geometry" />
        </mxCell>
        <mxCell id="s3E7Dk6g6ZmlKeuQgmPd-37" style="edgeStyle=orthogonalEdgeStyle;rounded=0;orthogonalLoop=1;jettySize=auto;html=1;exitX=0.5;exitY=1;exitDx=0;exitDy=0;entryX=0.5;entryY=0;entryDx=0;entryDy=0;endArrow=none;endFill=0;" edge="1" parent="1" source="s3E7Dk6g6ZmlKeuQgmPd-4" target="s3E7Dk6g6ZmlKeuQgmPd-9">
          <mxGeometry relative="1" as="geometry" />
        </mxCell>
        <mxCell id="s3E7Dk6g6ZmlKeuQgmPd-4" value="Tipo" style="rounded=0;whiteSpace=wrap;html=1;strokeWidth=3;" vertex="1" parent="1">
          <mxGeometry x="590" y="150" width="110" height="40" as="geometry" />
        </mxCell>
        <mxCell id="s3E7Dk6g6ZmlKeuQgmPd-5" value="Atributo" style="rounded=0;whiteSpace=wrap;html=1;strokeWidth=3;" vertex="1" parent="1">
          <mxGeometry x="290" y="480" width="110" height="40" as="geometry" />
        </mxCell>
        <mxCell id="s3E7Dk6g6ZmlKeuQgmPd-41" style="edgeStyle=orthogonalEdgeStyle;rounded=0;orthogonalLoop=1;jettySize=auto;html=1;exitX=0.5;exitY=1;exitDx=0;exitDy=0;entryX=0.5;entryY=0;entryDx=0;entryDy=0;endArrow=none;endFill=0;" edge="1" parent="1" source="s3E7Dk6g6ZmlKeuQgmPd-6" target="s3E7Dk6g6ZmlKeuQgmPd-3">
          <mxGeometry relative="1" as="geometry" />
        </mxCell>
        <mxCell id="s3E7Dk6g6ZmlKeuQgmPd-6" value="Relacionar" style="rhombus;whiteSpace=wrap;html=1;strokeWidth=2;" vertex="1" parent="1">
          <mxGeometry x="480" y="275" width="130" height="50" as="geometry" />
        </mxCell>
        <mxCell id="s3E7Dk6g6ZmlKeuQgmPd-32" style="edgeStyle=orthogonalEdgeStyle;rounded=0;orthogonalLoop=1;jettySize=auto;html=1;exitX=0.5;exitY=0;exitDx=0;exitDy=0;entryX=0.5;entryY=1;entryDx=0;entryDy=0;" edge="1" parent="1" source="s3E7Dk6g6ZmlKeuQgmPd-8" target="s3E7Dk6g6ZmlKeuQgmPd-1">
          <mxGeometry relative="1" as="geometry" />
        </mxCell>
        <mxCell id="s3E7Dk6g6ZmlKeuQgmPd-34" style="edgeStyle=orthogonalEdgeStyle;rounded=0;orthogonalLoop=1;jettySize=auto;html=1;exitX=1;exitY=0.5;exitDx=0;exitDy=0;entryX=0;entryY=0.5;entryDx=0;entryDy=0;" edge="1" parent="1" source="s3E7Dk6g6ZmlKeuQgmPd-8" target="s3E7Dk6g6ZmlKeuQgmPd-3">
          <mxGeometry relative="1" as="geometry" />
        </mxCell>
        <mxCell id="s3E7Dk6g6ZmlKeuQgmPd-43" style="edgeStyle=orthogonalEdgeStyle;rounded=0;orthogonalLoop=1;jettySize=auto;html=1;exitX=0.5;exitY=1;exitDx=0;exitDy=0;entryX=0.5;entryY=0;entryDx=0;entryDy=0;endArrow=none;endFill=0;" edge="1" parent="1" source="s3E7Dk6g6ZmlKeuQgmPd-8" target="s3E7Dk6g6ZmlKeuQgmPd-5">
          <mxGeometry relative="1" as="geometry" />
        </mxCell>
        <mxCell id="s3E7Dk6g6ZmlKeuQgmPd-8" value="Poseer" style="rhombus;whiteSpace=wrap;html=1;strokeWidth=2;" vertex="1" parent="1">
          <mxGeometry x="280" y="380" width="130" height="50" as="geometry" />
        </mxCell>
        <mxCell id="s3E7Dk6g6ZmlKeuQgmPd-9" value="Agrupar" style="rhombus;whiteSpace=wrap;html=1;strokeWidth=2;" vertex="1" parent="1">
          <mxGeometry x="580" y="230" width="130" height="50" as="geometry" />
        </mxCell>
        <mxCell id="s3E7Dk6g6ZmlKeuQgmPd-10" value="" style="rhombus;whiteSpace=wrap;html=1;strokeWidth=2;fillColor=none;" vertex="1" parent="1">
          <mxGeometry x="290" y="385" width="110" height="40" as="geometry" />
        </mxCell>
        <mxCell id="s3E7Dk6g6ZmlKeuQgmPd-11" value="" style="rhombus;whiteSpace=wrap;html=1;strokeWidth=2;fillColor=none;" vertex="1" parent="1">
          <mxGeometry x="590" y="235" width="110" height="40" as="geometry" />
        </mxCell>
        <mxCell id="s3E7Dk6g6ZmlKeuQgmPd-12" value="" style="rounded=0;whiteSpace=wrap;html=1;strokeWidth=2;fillColor=none;" vertex="1" parent="1">
          <mxGeometry x="297.5" y="485" width="95" height="30" as="geometry" />
        </mxCell>
        <mxCell id="s3E7Dk6g6ZmlKeuQgmPd-13" value="" style="rounded=0;whiteSpace=wrap;html=1;strokeWidth=2;fillColor=none;" vertex="1" parent="1">
          <mxGeometry x="597.5" y="155" width="95" height="30" as="geometry" />
        </mxCell>
        <mxCell id="s3E7Dk6g6ZmlKeuQgmPd-21" style="edgeStyle=orthogonalEdgeStyle;rounded=0;orthogonalLoop=1;jettySize=auto;html=1;exitX=1;exitY=0.5;exitDx=0;exitDy=0;entryX=0;entryY=0.5;entryDx=0;entryDy=0;endArrow=none;endFill=0;" edge="1" parent="1" source="s3E7Dk6g6ZmlKeuQgmPd-14" target="s3E7Dk6g6ZmlKeuQgmPd-1">
          <mxGeometry relative="1" as="geometry" />
        </mxCell>
        <mxCell id="s3E7Dk6g6ZmlKeuQgmPd-14" value="Grado" style="ellipse;whiteSpace=wrap;html=1;strokeWidth=2;" vertex="1" parent="1">
          <mxGeometry x="160" y="280" width="90" height="40" as="geometry" />
        </mxCell>
        <mxCell id="s3E7Dk6g6ZmlKeuQgmPd-22" style="edgeStyle=orthogonalEdgeStyle;rounded=0;orthogonalLoop=1;jettySize=auto;html=1;exitX=1;exitY=0.5;exitDx=0;exitDy=0;entryX=0;entryY=0;entryDx=0;entryDy=0;endArrow=none;endFill=0;" edge="1" parent="1" source="s3E7Dk6g6ZmlKeuQgmPd-15" target="s3E7Dk6g6ZmlKeuQgmPd-1">
          <mxGeometry relative="1" as="geometry" />
        </mxCell>
        <mxCell id="s3E7Dk6g6ZmlKeuQgmPd-15" value="Participaci칩n" style="ellipse;whiteSpace=wrap;html=1;strokeWidth=2;" vertex="1" parent="1">
          <mxGeometry x="180" y="230" width="90" height="40" as="geometry" />
        </mxCell>
        <mxCell id="s3E7Dk6g6ZmlKeuQgmPd-23" style="edgeStyle=orthogonalEdgeStyle;rounded=0;orthogonalLoop=1;jettySize=auto;html=1;exitX=1;exitY=0.5;exitDx=0;exitDy=0;entryX=0;entryY=1;entryDx=0;entryDy=0;endArrow=none;endFill=0;" edge="1" parent="1" source="s3E7Dk6g6ZmlKeuQgmPd-16" target="s3E7Dk6g6ZmlKeuQgmPd-1">
          <mxGeometry relative="1" as="geometry" />
        </mxCell>
        <mxCell id="s3E7Dk6g6ZmlKeuQgmPd-16" value="Cardinalidad" style="ellipse;whiteSpace=wrap;html=1;strokeWidth=2;" vertex="1" parent="1">
          <mxGeometry x="180" y="330" width="90" height="40" as="geometry" />
        </mxCell>
        <mxCell id="s3E7Dk6g6ZmlKeuQgmPd-24" style="edgeStyle=orthogonalEdgeStyle;rounded=0;orthogonalLoop=1;jettySize=auto;html=1;exitX=0.5;exitY=1;exitDx=0;exitDy=0;entryX=0.136;entryY=0;entryDx=0;entryDy=0;entryPerimeter=0;endArrow=none;endFill=0;" edge="1" parent="1" source="s3E7Dk6g6ZmlKeuQgmPd-17" target="s3E7Dk6g6ZmlKeuQgmPd-1">
          <mxGeometry relative="1" as="geometry" />
        </mxCell>
        <mxCell id="s3E7Dk6g6ZmlKeuQgmPd-17" value="&lt;u&gt;NomRelaci칩n&lt;/u&gt;" style="ellipse;whiteSpace=wrap;html=1;strokeWidth=2;" vertex="1" parent="1">
          <mxGeometry x="260" y="190" width="90" height="40" as="geometry" />
        </mxCell>
        <mxCell id="s3E7Dk6g6ZmlKeuQgmPd-35" style="edgeStyle=orthogonalEdgeStyle;rounded=0;orthogonalLoop=1;jettySize=auto;html=1;exitX=0.5;exitY=0;exitDx=0;exitDy=0;entryX=0.5;entryY=1;entryDx=0;entryDy=0;endArrow=none;endFill=0;" edge="1" parent="1" source="s3E7Dk6g6ZmlKeuQgmPd-18" target="s3E7Dk6g6ZmlKeuQgmPd-5">
          <mxGeometry relative="1" as="geometry" />
        </mxCell>
        <mxCell id="s3E7Dk6g6ZmlKeuQgmPd-18" value="&lt;u&gt;NomAtributo&lt;/u&gt;" style="ellipse;whiteSpace=wrap;html=1;strokeWidth=2;" vertex="1" parent="1">
          <mxGeometry x="300" y="550" width="90" height="40" as="geometry" />
        </mxCell>
        <mxCell id="s3E7Dk6g6ZmlKeuQgmPd-36" style="edgeStyle=orthogonalEdgeStyle;rounded=0;orthogonalLoop=1;jettySize=auto;html=1;exitX=0.5;exitY=0;exitDx=0;exitDy=0;entryX=0.5;entryY=1;entryDx=0;entryDy=0;endArrow=none;endFill=0;" edge="1" parent="1" source="s3E7Dk6g6ZmlKeuQgmPd-19" target="s3E7Dk6g6ZmlKeuQgmPd-3">
          <mxGeometry relative="1" as="geometry" />
        </mxCell>
        <mxCell id="s3E7Dk6g6ZmlKeuQgmPd-19" value="&lt;u&gt;NomEntidad&lt;/u&gt;" style="ellipse;whiteSpace=wrap;html=1;strokeWidth=2;" vertex="1" parent="1">
          <mxGeometry x="500" y="470" width="90" height="40" as="geometry" />
        </mxCell>
        <mxCell id="s3E7Dk6g6ZmlKeuQgmPd-28" style="edgeStyle=orthogonalEdgeStyle;rounded=0;orthogonalLoop=1;jettySize=auto;html=1;exitX=0.5;exitY=1;exitDx=0;exitDy=0;entryX=0.5;entryY=0;entryDx=0;entryDy=0;endArrow=none;endFill=0;" edge="1" parent="1" source="s3E7Dk6g6ZmlKeuQgmPd-20" target="s3E7Dk6g6ZmlKeuQgmPd-4">
          <mxGeometry relative="1" as="geometry" />
        </mxCell>
        <mxCell id="s3E7Dk6g6ZmlKeuQgmPd-20" value="&lt;u&gt;NomTipo&lt;/u&gt;" style="ellipse;whiteSpace=wrap;html=1;strokeWidth=2;" vertex="1" parent="1">
          <mxGeometry x="600" y="70" width="90" height="40" as="geometry" />
        </mxCell>
        <mxCell id="s3E7Dk6g6ZmlKeuQgmPd-38" value="" style="endArrow=none;html=1;rounded=0;" edge="1" parent="1">
          <mxGeometry width="50" height="50" relative="1" as="geometry">
            <mxPoint x="638" y="230" as="sourcePoint" />
            <mxPoint x="638" y="190" as="targetPoint" />
          </mxGeometry>
        </mxCell>
        <mxCell id="s3E7Dk6g6ZmlKeuQgmPd-40" value="" style="endArrow=none;html=1;rounded=0;entryX=0.991;entryY=0.333;entryDx=0;entryDy=0;entryPerimeter=0;exitX=0.103;exitY=0.367;exitDx=0;exitDy=0;exitPerimeter=0;" edge="1" parent="1" source="s3E7Dk6g6ZmlKeuQgmPd-6" target="s3E7Dk6g6ZmlKeuQgmPd-1">
          <mxGeometry width="50" height="50" relative="1" as="geometry">
            <mxPoint x="470" y="294" as="sourcePoint" />
            <mxPoint x="410" y="290" as="targetPoint" />
          </mxGeometry>
        </mxCell>
        <mxCell id="s3E7Dk6g6ZmlKeuQgmPd-42" value="" style="endArrow=none;html=1;rounded=0;entryX=0.551;entryY=-0.008;entryDx=0;entryDy=0;entryPerimeter=0;exitX=0.548;exitY=0.968;exitDx=0;exitDy=0;exitPerimeter=0;" edge="1" parent="1" source="s3E7Dk6g6ZmlKeuQgmPd-6" target="s3E7Dk6g6ZmlKeuQgmPd-3">
          <mxGeometry width="50" height="50" relative="1" as="geometry">
            <mxPoint x="370" y="360" as="sourcePoint" />
            <mxPoint x="570" y="330" as="targetPoint" />
          </mxGeometry>
        </mxCell>
        <mxCell id="s3E7Dk6g6ZmlKeuQgmPd-44" value="" style="endArrow=none;html=1;rounded=0;" edge="1" parent="1">
          <mxGeometry width="50" height="50" relative="1" as="geometry">
            <mxPoint x="351" y="480" as="sourcePoint" />
            <mxPoint x="351" y="430" as="targetPoint" />
          </mxGeometry>
        </mxCell>
      </root>
    </mxGraphModel>
  </diagram>
</mxfile>
